<svg id="Layer_1" data-name="Layer 1" xmlns="http://www.w3.org/2000/svg" xmlns:xlink="http://www.w3.org/1999/xlink" viewBox="0 0 537.44 476.87"><defs><style>.cls-1{fill:url(#linear-gradient);}</style><linearGradient id="linear-gradient" x1="-10.36" y1="-40.64" x2="544.08" y2="513.8" gradientUnits="userSpaceOnUse"><stop offset="0.01" stop-color="#7579ff"/><stop offset="0.2" stop-color="#7f6bfd"/><stop offset="0.57" stop-color="#9848f6"/><stop offset="0.81" stop-color="#ab2df1"/><stop offset="0.98" stop-color="#b224ef"/></linearGradient></defs><title>logoXeito</title><path class="cls-1" d="M184.77,207.37S478.78,343.14,510,357.85c26,12.24,27.41,24.46,27.41,42.87v64.84c0,7.26-.35,15.44-14.11,8.95S262.16,351.34,234.64,337.67c-49-24.32-49.87-45.12-49.87-78.83ZM27.41,357.85C1.39,370.09,0,382.31,0,400.72v64.84c0,7.26.35,15.44,14.11,8.95,10.5-4.95,157.05-74.07,238.13-112.62-11.56-5.52-20-9.57-23.9-11.52-26.05-12.94-41.36-25.94-49.62-42.16a67.5,67.5,0,0,1-6-17.68C105.05,321.8,41.08,351.41,27.41,357.85ZM352.67,218c0-33.7-.91-54.51-49.88-78.83C275.27,125.53,27.87,8.85,14.11,2.36S0,4.06,0,11.31V76.15C0,94.56,1.39,106.78,27.41,119,58.66,133.73,352.67,269.5,352.67,269.5ZM510,119c26-12.25,27.41-24.47,27.41-42.88V11.31c0-7.25-.35-15.44-14.11-9C512.83,7.31,366.27,76.43,285.19,115c11.56,5.52,20,9.57,23.91,11.53,26,12.94,41.36,25.94,49.62,42.15a67.87,67.87,0,0,1,6,17.68C432.38,155.07,496.36,125.46,510,119Z"/></svg>